<svg xmlns="http://www.w3.org/2000/svg" viewBox="0 0 24 24" fill="#f8b4d9">
  <path d="M12 2C12 2 9.5 5.5 9.5 8.5C9.5 10.4 10.6 12 12 12C13.4 12 14.5 10.4 14.5 8.5C14.5 5.5 12 2 12 2Z" opacity="0.6"/>
  <path d="M7 6C7 6 3.5 8 3.5 11.5C3.5 13.7 5.3 15.5 7.5 15.5C9 15.5 10.3 14.5 11 13C9 12.5 7.5 10.5 7.5 8.5C7.5 7.5 7 6 7 6Z" opacity="0.4"/>
  <path d="M17 6C17 6 20.5 8 20.5 11.5C20.5 13.7 18.7 15.5 16.5 15.5C15 15.5 13.7 14.5 13 13C15 12.5 16.5 10.5 16.5 8.5C16.5 7.5 17 6 17 6Z" opacity="0.4"/>
  <path d="M12 12C12 12 8 14 8 17.5C8 20 9.8 22 12 22C14.2 22 16 20 16 17.5C16 14 12 12 12 12Z" opacity="0.8"/>
</svg>
